<?xml version="1.0" encoding="UTF-8" standalone="no"?>
<!-- Generator: Adobe Illustrator 23.0.3, SVG Export Plug-In . SVG Version: 6.00 Build 0)  -->

<svg
   xmlns:dc="http://purl.org/dc/elements/1.1/"
   xmlns:cc="http://creativecommons.org/ns#"
   xmlns:rdf="http://www.w3.org/1999/02/22-rdf-syntax-ns#"
   xmlns:svg="http://www.w3.org/2000/svg"
   xmlns="http://www.w3.org/2000/svg"
   xmlns:xlink="http://www.w3.org/1999/xlink"
   xmlns:sodipodi="http://sodipodi.sourceforge.net/DTD/sodipodi-0.dtd"
   xmlns:inkscape="http://www.inkscape.org/namespaces/inkscape"
   version="1.0"
   id="Capa_1"
   x="0px"
   y="0px"
   viewBox="0 0 372.5922 148.53759"
   enable-background="new 0 0 788.3 148.6"
   xml:space="preserve"
   sodipodi:docname="Logo.svg"
   width="372.59219"
   height="148.5376"
   inkscape:version="0.92.4 (f8dce91, 2019-08-02)"><metadata
   id="metadata210"><rdf:RDF><cc:Work
       rdf:about=""><dc:format>image/svg+xml</dc:format><dc:type
         rdf:resource="http://purl.org/dc/dcmitype/StillImage" /><dc:title>Recurso 1</dc:title></cc:Work></rdf:RDF></metadata><defs
   id="defs208" /><sodipodi:namedview
   pagecolor="#ffffff"
   bordercolor="#666666"
   borderopacity="1"
   objecttolerance="10"
   gridtolerance="10"
   guidetolerance="10"
   inkscape:pageopacity="0"
   inkscape:pageshadow="2"
   inkscape:window-width="1850"
   inkscape:window-height="1016"
   id="namedview206"
   showgrid="false"
   inkscape:zoom="1.5146518"
   inkscape:cx="67.427247"
   inkscape:cy="132.96373"
   inkscape:window-x="70"
   inkscape:window-y="27"
   inkscape:window-maximized="1"
   inkscape:current-layer="g201" />
<title
   id="title2">Recurso 1</title>
<g
   id="g203"
   transform="translate(-415.60779)">
	<g
   id="g201">
		<g
   id="Capa_1-2">
			
			<path
   d="m 610.9,54.7 h -9.7 v 39.6 c 0,1.4 -0.3,1.7 -1.7,1.7 h -1.2 c -1.4,0 -1.7,-0.3 -1.7,-1.7 V 54.7 H 584 c -1.4,0 -1.7,-0.2 -1.7,-1.5 v -1 c 0,-1.3 0.3,-1.5 1.7,-1.5 h 29.7 c 1.2,0 1.5,0.1 1.5,0.9 -0.1,1.5 -1.4,3.1 -4.3,3.1"
   id="path6"
   inkscape:connector-curvature="0"
   style="fill:#009a4b" />
			<path
   d="m 642.5,72.7 h 11.8 c 1.7,0 1.9,0.3 1.9,2.1 v 16.8 c 0,1.5 -0.3,1.9 -1.4,2.4 -4.6,2 -9.6,3 -14.6,2.9 -16.3,0 -23.2,-9.6 -23.2,-23.2 0,-14.2 6.7,-23.6 23.4,-23.6 6.9,0 11.1,1.7 13.7,3.5 1,0.8 1.7,2 1.7,3.3 0,0.9 -0.2,1.3 -1,1 -4.3,-2.5 -9.2,-3.9 -14.2,-3.8 -13.8,0 -18.6,7.8 -18.6,19.6 0,11.1 4.5,19.1 18.2,19.1 3.9,0.1 7.8,-0.7 11.4,-2.2 V 76.8 h -7.5 c -1.7,0.1 -3.1,-1.1 -3.2,-2.7 0,-0.1 0,-0.2 0,-0.3 -0.1,-1 0.3,-1.1 1.6,-1.1"
   id="path8"
   inkscape:connector-curvature="0"
   style="fill:#009a4b" />
			<path
   d="m 670.7,94.3 c 0,1.4 -0.3,1.7 -1.7,1.7 h -1.2 c -1.5,0 -1.7,-0.3 -1.7,-1.7 V 52.7 c 0,-1.7 0.3,-2 1.9,-2 h 0.8 c 1.7,0 1.9,0.3 1.9,2 z"
   id="path10"
   inkscape:connector-curvature="0"
   style="fill:#009a4b" />
			<path
   d="m 595.2,113.5 h 4.2 c 0.6,0 0.7,0.1 0.7,0.8 v 6 c 0,0.5 -0.1,0.7 -0.5,0.8 -1.6,0.7 -3.4,1 -5.2,1 -5.8,0 -8.2,-3.4 -8.2,-8.3 0,-5 2.4,-8.4 8.3,-8.4 1.7,-0.1 3.4,0.3 4.9,1.2 0.4,0.3 0.6,0.7 0.6,1.2 0,0.3 -0.1,0.5 -0.3,0.4 -1.5,-0.9 -3.3,-1.4 -5.1,-1.3 -4.9,0 -6.6,2.8 -6.6,7 0,3.9 1.6,6.8 6.5,6.8 1.4,0 2.7,-0.2 4,-0.8 V 115 h -2.7 c -0.6,0.1 -1.1,-0.4 -1.2,-1 0,0 0,-0.1 0,-0.1 -0.1,-0.3 0.1,-0.3 0.6,-0.4"
   id="path12"
   inkscape:connector-curvature="0"
   style="fill:#231f20" />
			<path
   d="m 604.5,116.9 v 4.2 c 0,0.5 -0.1,0.6 -0.6,0.6 h -0.3 c -0.5,0 -0.6,-0.1 -0.6,-0.6 v -9.3 c 0,-0.4 0,-0.6 0.3,-0.6 0.9,0 1.3,0.4 1.3,1.3 v 0.7 c 0.3,-1.4 1.5,-2.3 2.9,-2.2 1.3,0 1.7,0.5 1.7,1.2 0,0.4 0,0.5 -0.4,0.4 -0.4,-0.1 -0.8,-0.2 -1.2,-0.2 -2.1,0 -3.1,1.7 -3.1,4.5"
   id="path14"
   inkscape:connector-curvature="0"
   style="fill:#231f20" />
			<path
   d="m 617.9,120.6 v -0.3 c -0.8,1.1 -2.1,1.7 -3.5,1.6 -2.6,0 -3.7,-1.5 -3.7,-4 v -6.1 c 0,-0.4 0,-0.6 0.3,-0.6 0.9,0 1.3,0.4 1.3,1.3 v 5.4 c -0.2,1.2 0.7,2.3 1.9,2.5 0.2,0 0.4,0 0.5,0 1.6,0.2 2.9,-1 3.1,-2.5 0,-0.1 0,-0.1 0,-0.2 v -5.9 c 0,-0.4 0,-0.6 0.3,-0.6 0.9,0 1.3,0.4 1.3,1.3 v 8.8 c 0,0.4 0,0.6 -0.3,0.6 -0.8,0 -1.2,-0.4 -1.2,-1.3"
   id="path16"
   inkscape:connector-curvature="0"
   style="fill:#231f20" />
			<path
   d="m 624.3,120.1 v 6.3 c 0,0.5 -0.1,0.6 -0.6,0.6 h -0.3 c -0.5,0 -0.6,-0.1 -0.6,-0.6 v -14.6 c 0,-0.4 0,-0.6 0.3,-0.6 0.9,0 1.3,0.4 1.3,1.3 v 0.5 c 0.9,-1.3 2.3,-2.1 3.9,-2 3.2,0 5,2.2 5,5.5 0,3.3 -1.8,5.4 -5,5.4 -1.7,0.1 -3.1,-0.6 -4,-1.8 m 3.5,0.3 c 2.5,0 3.6,-1.7 3.6,-3.9 0,-2.2 -1.2,-4 -3.6,-4 -2.4,0 -3.7,2 -3.7,4 0,2 1.1,3.9 3.7,3.9"
   id="path18"
   inkscape:connector-curvature="0"
   style="fill:#231f20" />
			<path
   d="m 640.5,111.1 c 3.5,0 5.4,2.2 5.4,5.4 0,3.2 -2,5.4 -5.4,5.4 -3.4,0 -5.5,-2.1 -5.5,-5.4 0,-3.3 2,-5.4 5.5,-5.4 m 0,9.4 c 2.4,0 3.8,-1.6 3.8,-4 0,-2.4 -1.3,-4 -3.8,-4 -2.5,0 -3.8,1.7 -3.8,4 0,2.3 1.3,4 3.8,4"
   id="path20"
   inkscape:connector-curvature="0"
   style="fill:#231f20" />
			<path
   d="m 648.5,121.2 v -14.7 c 0,-0.7 0.1,-0.8 0.8,-0.8 h 7.8 c 0.4,0 0.5,0 0.5,0.3 0,0.6 -0.5,1.1 -1.5,1.1 h -5.8 v 5.6 h 5.6 c 0.4,0 0.5,0 0.5,0.3 0,0.6 -0.5,1.1 -1.5,1.1 h -4.5 v 6.2 h 6.7 c 0.5,0 0.6,0.1 0.6,0.6 v 0.3 c 0,0.4 -0.1,0.5 -0.6,0.5 h -7.6 c -0.8,0.1 -1,0 -1,-0.5"
   id="path22"
   inkscape:connector-curvature="0"
   style="fill:#009a4b" />
			<path
   d="m 667.8,121.8 h -0.3 c -0.5,0 -0.6,-0.1 -0.6,-0.6 v -5.8 c 0,-1.6 -0.7,-2.8 -2.6,-2.8 -1.6,-0.1 -2.9,1.1 -3,2.6 0,0.1 0,0.2 0,0.3 v 5.8 c 0,0.6 -0.1,0.6 -0.6,0.6 h -0.3 c -0.5,0 -0.6,-0.1 -0.6,-0.6 V 112 c 0,-0.4 0,-0.6 0.3,-0.6 0.9,0 1.3,0.4 1.3,1.3 v 0.2 c 0.8,-1.1 2.1,-1.7 3.4,-1.6 2.7,0 3.8,1.6 3.8,4.1 v 6 c -0.2,0.3 -0.3,0.4 -0.8,0.4"
   id="path24"
   inkscape:connector-curvature="0"
   style="fill:#009a4b" />
			<path
   d="m 672.6,117.2 c 0.2,2.5 1.6,3.2 3.8,3.2 1.4,0 2.7,-0.3 4,-0.9 0.3,-0.1 0.5,0 0.5,0.3 0,0.6 -0.4,1.1 -0.9,1.3 -1.2,0.5 -2.5,0.8 -3.8,0.8 -3.2,0 -5.3,-1.4 -5.3,-5.2 0,-3.8 1.8,-5.7 5.1,-5.7 3.3,0 4.9,2.1 4.9,5.2 0,0.5 -0.1,0.9 -0.9,0.9 z m 0,-1.3 h 6.7 c -0.1,-2.1 -1.1,-3.5 -3.3,-3.5 -2.1,0 -3.2,1.4 -3.4,3.5"
   id="path26"
   inkscape:connector-curvature="0"
   style="fill:#009a4b" />
			<path
   d="m 685.1,116.9 v 4.2 c 0,0.5 -0.1,0.6 -0.6,0.6 h -0.3 c -0.5,0 -0.6,-0.1 -0.6,-0.6 v -9.3 c 0,-0.4 0,-0.6 0.3,-0.6 0.9,0 1.3,0.4 1.3,1.3 v 0.7 c 0.3,-1.4 1.5,-2.3 2.9,-2.2 1.3,0 1.7,0.5 1.7,1.2 0,0.4 0,0.5 -0.4,0.4 -0.4,-0.1 -0.8,-0.2 -1.2,-0.2 -2.2,0 -3.1,1.7 -3.1,4.5"
   id="path28"
   inkscape:connector-curvature="0"
   style="fill:#009a4b" />
			<path
   d="m 691.4,126.2 c -0.5,-0.2 -0.9,-0.6 -0.9,-1.2 0,-0.4 0.2,-0.5 0.5,-0.3 1.2,0.6 2.6,0.9 4,0.9 1.9,0 4.1,-0.6 4.1,-4.5 V 120 c -0.9,1.3 -2.4,2 -3.9,1.9 -3.2,0 -5,-2.2 -5,-5.4 0,-3.2 1.8,-5.5 5,-5.5 1.6,-0.1 3.1,0.7 3.9,2 v -0.4 c 0,-1 0.4,-1.4 1.3,-1.4 0.3,0 0.3,0.1 0.3,0.6 v 9.4 c 0,4.6 -2.7,5.7 -5.5,5.7 -1.2,0.2 -2.6,-0.1 -3.8,-0.7 m 4.2,-13.6 c -2.4,0 -3.6,1.8 -3.6,4 0,2.2 1.2,3.9 3.6,3.9 2.4,0 3.7,-1.9 3.7,-3.9 0,-2 -1.1,-4 -3.7,-4"
   id="path30"
   inkscape:connector-curvature="0"
   style="fill:#009a4b" />
			<path
   d="m 705.3,106 c 0.2,-0.3 0.5,-0.5 0.8,-0.4 h 0.8 c 0.3,0 0.4,0.2 0.1,0.5 l -2.2,2.3 c -0.2,0.2 -0.4,0.3 -0.6,0.2 h -0.7 c -0.2,0 -0.3,-0.1 -0.1,-0.3 z m 0.3,6.5 v 8.6 c 0,0.5 -0.1,0.6 -0.6,0.6 h -0.3 c -0.5,0 -0.6,-0.1 -0.6,-0.6 v -9.3 c 0,-0.4 0,-0.6 0.3,-0.6 0.8,0 1.2,0.4 1.2,1.3"
   id="path32"
   inkscape:connector-curvature="0"
   style="fill:#009a4b" />
			<path
   d="m 712,116 c 1.1,0 2.2,0.1 3.3,0.2 v -1.4 c 0,-2.2 -1.8,-2.4 -3.1,-2.4 -1,0 -1.9,0.1 -2.9,0.4 -0.6,0.2 -0.7,0.1 -0.7,-0.2 -0.1,-0.5 0.3,-1 0.8,-1.1 1,-0.3 2,-0.4 3,-0.4 1.5,0 4.4,0.4 4.4,3.6 v 6.6 c 0,0.4 0,0.6 -0.3,0.6 -0.8,0 -1.2,-0.3 -1.3,-1 -1.1,0.8 -2.5,1.2 -3.9,1.1 -2.4,0 -3.5,-1 -3.5,-3.1 0,-2.1 1.5,-2.9 4.2,-2.9 m 3.3,1.4 c -1,-0.1 -2,-0.2 -3,-0.2 -1.7,0 -2.8,0.2 -2.8,1.5 0,1.3 0.9,1.8 2.3,1.8 1.2,0.1 2.5,-0.3 3.5,-1 z"
   id="path34"
   inkscape:connector-curvature="0"
   style="fill:#009a4b" />
			<path
   d="m 721.2,121.8 c -0.5,0 -0.6,-0.1 -0.6,-0.6 v -14.8 c 0,-0.6 0.1,-0.8 0.7,-0.8 h 4.4 c 3.2,0 4.5,1.8 4.5,4 0,2.2 -0.9,3.2 -2.4,3.6 2.3,0.4 3.5,1.7 3.5,4 0,2.6 -1.6,4.4 -5.1,4.4 z m 1,-14.8 v 5.6 h 3.5 c 1.4,0.2 2.7,-0.8 2.9,-2.2 0,-0.2 0,-0.4 0,-0.6 0,-1.6 -0.8,-2.8 -3.1,-2.8 z m 0,7 v 6.3 h 3.7 c 2.7,0 3.7,-1.3 3.7,-3.2 0,-2.1 -1.3,-3.1 -3.7,-3.1 z"
   id="path36"
   inkscape:connector-curvature="0"
   style="fill:#009a4b" />
			<path
   d="m 738.7,111.1 c 3.5,0 5.4,2.2 5.4,5.4 0,3.2 -2,5.4 -5.4,5.4 -3.4,0 -5.5,-2.1 -5.5,-5.4 0,-3.3 2,-5.4 5.5,-5.4 m 0,9.4 c 2.4,0 3.8,-1.6 3.8,-4 0,-2.4 -1.3,-4 -3.8,-4 -2.5,0 -3.8,1.7 -3.8,4 0,2.3 1.4,4 3.8,4"
   id="path38"
   inkscape:connector-curvature="0"
   style="fill:#009a4b" />
			<path
   d="m 747.2,126.2 c -0.6,-0.3 -0.9,-0.6 -0.9,-1.2 0,-0.6 0.2,-0.5 0.5,-0.3 1.2,0.6 2.6,0.9 4,0.9 1.9,0 4.1,-0.6 4.1,-4.5 V 120 c -0.9,1.3 -2.4,2 -3.9,1.9 -3.2,0 -5,-2.2 -5,-5.4 0,-3.2 1.8,-5.5 5,-5.5 1.6,-0.1 3.1,0.7 3.9,2 v -0.4 c 0,-1 0.4,-1.4 1.3,-1.4 0.3,0 0.3,0.1 0.3,0.6 v 9.4 c 0,4.6 -2.7,5.7 -5.5,5.7 -1.3,0.2 -2.6,-0.1 -3.8,-0.7 m 4.2,-13.6 c -2.4,0 -3.6,1.8 -3.6,4 0,2.2 1.2,3.9 3.6,3.9 2.6,0 3.7,-1.9 3.7,-3.9 0,-2 -1.1,-4 -3.7,-4"
   id="path40"
   inkscape:connector-curvature="0"
   style="fill:#009a4b" />
			<path
   d="m 764.6,111.1 c 3.5,0 5.4,2.2 5.4,5.4 0,3.2 -2,5.4 -5.4,5.4 -3.4,0 -5.5,-2.1 -5.5,-5.4 0,-3.3 2,-5.4 5.5,-5.4 m 0,9.4 c 2.4,0 3.8,-1.6 3.8,-4 0,-2.4 -1.3,-4 -3.8,-4 -2.5,0 -3.8,1.7 -3.8,4 0,2.3 1.4,4 3.8,4"
   id="path42"
   inkscape:connector-curvature="0"
   style="fill:#009a4b" />
			<path
   d="m 774.7,108.7 v 2.5 h 2.8 c 0.4,0 0.5,0.1 0.5,0.5 v 0.3 c 0,0.5 -0.1,0.5 -0.5,0.5 h -2.8 v 5.9 c 0,1.5 0.8,1.9 1.5,1.9 0.5,0 1.1,-0.1 1.6,-0.4 0.3,-0.1 0.4,0 0.4,0.4 0,0.2 0,0.5 -0.2,0.7 -0.5,0.6 -1.4,0.9 -2.2,0.8 -1.8,0 -2.7,-1.1 -2.7,-3.3 v -5.9 h -1.3 c -0.4,0 -0.5,0 -0.5,-0.5 v -0.3 c 0,-0.5 0.1,-0.5 0.5,-0.5 h 1.3 v -0.8 c 0,-1.6 0.5,-2.3 1.3,-2.3 0.3,0 0.3,0.1 0.3,0.5"
   id="path44"
   inkscape:connector-curvature="0"
   style="fill:#009a4b" />
			<path
   d="m 783.4,116 c 1.1,0 2.2,0.1 3.3,0.2 v -1.4 c 0,-2.2 -1.8,-2.4 -3.1,-2.4 -1,0 -1.9,0.1 -2.9,0.4 -0.6,0.2 -0.7,0.1 -0.7,-0.2 -0.1,-0.5 0.3,-1 0.8,-1.1 1,-0.3 2,-0.4 3,-0.4 1.5,0 4.4,0.4 4.4,3.6 v 6.6 c 0,0.4 0,0.6 -0.3,0.6 -0.8,0 -1.2,-0.3 -1.3,-1 -1.1,0.8 -2.5,1.2 -3.9,1.1 -2.4,0 -3.5,-1 -3.5,-3.1 0,-2.1 1.5,-2.9 4.2,-2.9 m 3.3,1.4 c -1,-0.1 -2,-0.2 -3,-0.2 -1.7,0 -2.8,0.2 -2.8,1.5 0,1.3 0.9,1.8 2.3,1.8 1.2,0.1 2.5,-0.3 3.5,-1 z M 784.5,106 c 0.2,-0.3 0.5,-0.5 0.8,-0.4 h 0.8 c 0.3,0 0.4,0.2 0.1,0.5 l -2.2,2.3 c -0.2,0.2 -0.4,0.3 -0.6,0.2 h -0.7 c -0.2,0 -0.3,-0.1 -0.1,-0.3 z"
   id="path46"
   inkscape:connector-curvature="0"
   style="fill:#009a4b" />
			<path
   d="m 451.3,115.4 c -0.2,0 -0.3,-0.1 -0.5,-0.2 -19.1,-15.7 -21.8,-43.9 -6.1,-62.9 1.9,-2.3 4.1,-4.5 6.5,-6.4 0.3,-0.3 0.8,-0.2 1.1,0.1 0.3,0.3 0.2,0.8 -0.1,1.1 0,0 0,0 0,0 -18.6,15 -21.5,42.2 -6.6,60.8 1.8,2.3 3.9,4.4 6.2,6.2 0.3,0.3 0.3,0.7 0.1,1 -0.2,0.2 -0.4,0.3 -0.6,0.3"
   id="path48"
   inkscape:connector-curvature="0"
   style="fill:#9ec53b" />
			<g
   id="g62">
				<g
   id="g60">
					<defs
   id="defs51">
						<rect
   id="SVGID_1_"
   x="444.89999"
   y="34.799999"
   width="88.5"
   height="88.5" />
					</defs>
					<clipPath
   id="SVGID_2_">
						<use
   xlink:href="#SVGID_1_"
   overflow="visible"
   id="use53"
   style="overflow:visible"
   x="0"
   y="0"
   width="100%"
   height="100%" />
					</clipPath>
					<g
   clip-path="url(#SVGID_2_)"
   id="g58">
						<path
   d="m 489.2,123.2 c -23.7,0.1 -43.3,-18.6 -44.3,-42.3 0,-0.4 0.3,-0.8 0.7,-0.8 0.4,0 0.8,0.3 0.8,0.7 0.3,5.8 1.7,11.5 4.2,16.7 10.3,21.3 35.8,30.1 57.1,19.9 21.3,-10.3 30.1,-35.8 19.9,-57.1 -6.9,-14.2 -21,-23.4 -36.7,-24.1 -0.4,0 -0.7,-0.4 -0.7,-0.8 0,0 0,0 0,0 0,-0.4 0.4,-0.7 0.8,-0.7 0,0 0,0 0,0 24.4,0.9 43.5,21.4 42.6,45.8 -0.9,24 -20.5,42.8 -44.4,42.7"
   id="path56"
   inkscape:connector-curvature="0"
   style="fill:#9ec53b" />
					</g>
				</g>
			</g>
			<g
   id="g76">
				<g
   id="g74">
					<defs
   id="defs65">
						<rect
   id="SVGID_3_"
   x="448"
   y="24.299999"
   width="76.5"
   height="88.5" />
					</defs>
					<clipPath
   id="SVGID_4_">
						<use
   xlink:href="#SVGID_3_"
   overflow="visible"
   id="use67"
   style="overflow:visible"
   x="0"
   y="0"
   width="100%"
   height="100%" />
					</clipPath>
					<g
   clip-path="url(#SVGID_4_)"
   id="g72">
						<path
   d="m 492.3,112.8 c -24.4,0 -44.2,-19.9 -44.2,-44.3 0,-24.4 19.9,-44.2 44.3,-44.2 9.2,0 18.1,2.9 25.6,8.2 2.3,1.6 4.4,3.5 6.4,5.5 0.2,0.3 0.1,0.8 -0.2,1 -0.3,0.2 -0.6,0.2 -0.9,0 -1.9,-2 -3.9,-3.8 -6.2,-5.3 -19.3,-13.7 -45.9,-9.1 -59.6,10.1 -13.7,19.2 -9.1,45.9 10.1,59.6 15.5,11 36.5,10.4 51.4,-1.5 0.3,-0.3 0.8,-0.2 1.1,0.1 0.3,0.3 0.2,0.8 -0.1,1.1 -7.9,6.4 -17.7,9.8 -27.7,9.7"
   id="path70"
   inkscape:connector-curvature="0"
   style="fill:#009a4b" />
					</g>
				</g>
			</g>
			<path
   d="m 435,63.7 c 0,-11 8.9,-19.9 19.9,-19.9 11,0 19.9,8.9 19.9,19.9 0,11 -8.9,19.9 -19.8,19.9 -11,0 -20,-8.8 -20,-19.9 0,0 0,0 0,0"
   id="path78"
   inkscape:connector-curvature="0"
   style="fill:#009a4b" />
			<path
   d="m 480.1,53.3 c 0,-11 8.9,-19.9 19.9,-19.9 11,0 19.9,8.9 19.9,19.9 0,11 -8.9,19.9 -19.9,19.9 -11,0.1 -19.9,-8.9 -19.9,-19.9 0,0 0,0 0,0"
   id="path80"
   inkscape:connector-curvature="0"
   style="fill:#009a4b" />
			<path
   d="m 496,109.6 c -0.9,-8.3 5.1,-15.8 13.4,-16.7 8.3,-0.9 15.8,5.1 16.7,13.4 0.9,8.3 -5.1,15.8 -13.4,16.7 0,0 0,0 -0.1,0 -8.3,0.9 -15.7,-5.1 -16.6,-13.4"
   id="path82"
   inkscape:connector-curvature="0"
   style="fill:#9ec53b" />
			<path
   d="m 482.5,25.8 c 0,-8.4 6.8,-15.2 15.2,-15.1 8.4,0 15.2,6.8 15.1,15.2 0,8.4 -6.8,15.1 -15.2,15.1 -8.3,0 -15.1,-6.8 -15.1,-15.2 0,0 0,0 0,0"
   id="path84"
   inkscape:connector-curvature="0"
   style="fill:#9ec53b" />
			<path
   d="m 445.7,126.8 c 0,-8.4 6.8,-15.2 15.1,-15.2 8.4,0 15.2,6.8 15.2,15.1 0,8.3 -6.8,15.2 -15.1,15.2 0,0 0,0 0,0 -8.4,0.1 -15.2,-6.7 -15.2,-15.1 v 0"
   id="path86"
   inkscape:connector-curvature="0"
   style="fill:#9ec53b" />
			<path
   d="m 475.1,94.7 c 0,-2.9 2.3,-5.2 5.2,-5.2 2.9,0 5.2,2.3 5.2,5.2 0,2.9 -2.3,5.2 -5.2,5.2 v 0 c -2.9,0 -5.2,-2.3 -5.2,-5.2"
   id="path88"
   inkscape:connector-curvature="0"
   style="fill:#2376b4" />
			<path
   d="m 543.2,39.8 c -0.4,0 -0.7,-0.3 -0.8,-0.7 C 539.7,18.4 522.6,2.5 501.7,1.5 501.3,1.5 501,1.1 501,0.7 501,0.3 501.4,0 501.8,0 c 21.6,1.1 39.4,17.5 42.1,39 0.1,0.4 -0.2,0.8 -0.7,0.8 v 0"
   id="path90"
   inkscape:connector-curvature="0"
   style="fill:#2ea2da" />
			<path
   d="m 515.5,94.1 c 0,-9.6 7.7,-17.3 17.3,-17.3 9.6,0 17.3,7.7 17.3,17.3 0,9.6 -7.7,17.3 -17.3,17.3 v 0 c -9.5,0 -17.3,-7.8 -17.3,-17.3 0,0 0,0 0,0"
   id="path92"
   inkscape:connector-curvature="0"
   style="fill:#2ea2da" />
			<path
   d="m 529.3,32.7 c 0,-6.4 5.2,-11.5 11.5,-11.5 6.4,0 11.5,5.2 11.6,11.5 0,6.4 -5.2,11.5 -11.5,11.5 0,0 0,0 0,0 -6.5,0 -11.6,-5.1 -11.6,-11.5"
   id="path94"
   inkscape:connector-curvature="0"
   style="fill:#2ea2da" />
			<path
   d="m 453.2,25.8 c 0,-2.9 2.3,-5.2 5.2,-5.2 2.9,0 5.2,2.3 5.2,5.2 0,2.9 -2.3,5.2 -5.2,5.2 -2.9,0 -5.2,-2.3 -5.2,-5.2 0,0 0,0 0,0"
   id="path96"
   inkscape:connector-curvature="0"
   style="fill:#2ea2da" />
			<path
   d="m 503.3,148.3 c -1.9,-0.8 -2.8,-2.9 -2,-4.8 0.8,-1.9 2.9,-2.8 4.8,-2 1.9,0.8 2.8,2.9 2,4.8 -0.8,1.8 -2.9,2.7 -4.8,2 0,0 0,0 0,0"
   id="path98"
   inkscape:connector-curvature="0"
   style="fill:#009a4b" />
			<path
   d="m 484.6,120.9 c 0,-6.4 5.2,-11.5 11.5,-11.5 6.4,0 11.5,5.2 11.5,11.5 0,6.4 -5.2,11.5 -11.5,11.5 0,0 0,0 0,0 -6.4,0 -11.5,-5.1 -11.5,-11.5"
   id="path100"
   inkscape:connector-curvature="0"
   style="fill:#2076b3" />
			<path
   d="m 425.5,100 c 0,-6.4 5.2,-11.5 11.5,-11.5 6.4,0 11.5,5.2 11.5,11.5 0,6.4 -5.2,11.5 -11.5,11.5 0,0 0,0 0,0 -6.4,0 -11.5,-5.1 -11.5,-11.5"
   id="path102"
   inkscape:connector-curvature="0"
   style="fill:#2076b3" />
			<path
   d="m 417.9,41.3 c -1.9,-0.8 -2.8,-3 -2,-4.8 0.8,-1.9 3,-2.8 4.8,-2 1.8,0.8 2.8,3 2,4.8 0,0 0,0 0,0 -0.7,1.8 -2.9,2.7 -4.8,2 0,0 0,0 0,0"
   id="path104"
   inkscape:connector-curvature="0"
   style="fill:#009a4b" />
			
			
			
			
			
			
			
			
			
			
			
			
			
			
			
			
			
			
			
			
			
			
			
			
			
			
			
			
			
			
			
			
			
			
			
		</g>
	</g>
</g>
</svg>