<svg xmlns="http://www.w3.org/2000/svg" xmlns:xlink="http://www.w3.org/1999/xlink" viewBox="0 0 788.32 148.59"><defs><style>.cls-1{fill:none;}.cls-2{isolation:isolate;}.cls-3{fill:#6e6f71;}.cls-4{fill:#009a4b;}.cls-5{fill:#231f20;}.cls-6{fill:#9ec53b;}.cls-7{mix-blend-mode:multiply;}.cls-8{clip-path:url(#clip-path);}.cls-9{clip-path:url(#clip-path-2);}.cls-10{fill:#2376b4;}.cls-11{fill:#2ea2da;}.cls-12{fill:#2076b3;}.cls-13{clip-path:url(#clip-path-3);}.cls-14{clip-path:url(#clip-path-4);}</style><clipPath id="clip-path"><rect class="cls-1" x="444.92" y="34.76" width="88.5" height="88.47"/></clipPath><clipPath id="clip-path-2"><rect class="cls-1" x="447.97" y="24.31" width="76.54" height="88.54"/></clipPath><clipPath id="clip-path-3"><rect class="cls-1" x="29.12" y="34.6" width="88" height="87.98"/></clipPath><clipPath id="clip-path-4"><rect class="cls-1" x="32.16" y="24.21" width="76.11" height="88.04"/></clipPath></defs><title>Recurso 1</title><g class="cls-2"><g id="Capa_2" data-name="Capa 2"><g id="Capa_1-2" data-name="Capa 1"><path class="cls-3" d="M363.87,144.42a1.6,1.6,0,0,1-1.59-1.6V10.2a1.6,1.6,0,1,1,3.19,0V142.82A1.6,1.6,0,0,1,363.87,144.42Z"/><path class="cls-4" d="M610.89,54.74h-9.73V94.3c0,1.41-.32,1.73-1.73,1.73h-1.21c-1.41,0-1.73-.32-1.73-1.73V54.74H583.94c-1.4,0-1.73-.19-1.73-1.53v-1c0-1.28.33-1.54,1.73-1.54h29.7c1.15,0,1.47.06,1.47.9,0,1.53-1.28,3.13-4.22,3.13"/><path class="cls-4" d="M642.5,72.73h11.78c1.73,0,1.92.26,1.92,2.11V91.61c0,1.47-.26,1.86-1.41,2.37a35.25,35.25,0,0,1-14.6,2.88c-16.25,0-23.17-9.6-23.17-23.23C617,59.48,623.74,50,640.45,50c6.91,0,11.07,1.66,13.7,3.45a4.39,4.39,0,0,1,1.73,3.33c0,.9-.19,1.34-1,1A27.19,27.19,0,0,0,640.64,54C626.82,54,622,61.85,622,73.63c0,11.07,4.48,19.07,18.17,19.07a26.71,26.71,0,0,0,11.4-2.24V76.76H644.1a3,3,0,0,1-3.26-3.07c0-.9.38-1,1.66-1"/><path class="cls-4" d="M670.65,94.3c0,1.41-.25,1.73-1.66,1.73h-1.22c-1.47,0-1.73-.32-1.73-1.73V52.69c0-1.72.26-2,1.92-2h.78c1.66,0,1.91.26,1.91,2Z"/><path class="cls-5" d="M595.16,113.49h4.18c.62,0,.68.09.68.75v6c0,.52-.09.65-.49.84a12.62,12.62,0,0,1-5.19,1c-5.78,0-8.23-3.41-8.23-8.25,0-5,2.39-8.42,8.32-8.42a8.32,8.32,0,0,1,4.87,1.23,1.55,1.55,0,0,1,.61,1.18c0,.32-.07.48-.34.37a9.64,9.64,0,0,0-5.07-1.32c-4.91,0-6.62,2.77-6.62,7,0,3.93,1.59,6.77,6.46,6.77a9.54,9.54,0,0,0,4-.79v-4.87h-2.66a1.06,1.06,0,0,1-1.16-1.09c0-.32.14-.34.59-.34"/><path class="cls-5" d="M604.46,116.92v4.21c0,.54-.09.63-.63.63h-.32c-.52,0-.64-.09-.64-.63V111.8c0-.43,0-.56.32-.56.91,0,1.27.38,1.27,1.27v.73A2.9,2.9,0,0,1,607.4,111c1.29,0,1.66.5,1.66,1.23,0,.37,0,.46-.37.39a4.59,4.59,0,0,0-1.24-.18c-2,0-2.94,1.68-3,4.5"/><path class="cls-5" d="M617.93,120.58v-.29a4.09,4.09,0,0,1-3.5,1.61c-2.62,0-3.67-1.52-3.67-4V111.8c0-.43,0-.56.32-.56.91,0,1.28.38,1.28,1.27v5.39a2.23,2.23,0,0,0,2.45,2.52,2.83,2.83,0,0,0,3.12-2.72v-5.9c0-.43,0-.56.32-.56.91,0,1.29.38,1.29,1.27v8.78c0,.43,0,.57-.32.57-.91,0-1.29-.39-1.29-1.28"/><path class="cls-5" d="M624.25,120.1v6.26c0,.54-.09.63-.63.63h-.32c-.52,0-.64-.09-.64-.63V111.8c0-.43,0-.56.32-.56.91,0,1.27.38,1.27,1.27v.54a4.37,4.37,0,0,1,3.92-2c3.2,0,5,2.23,5,5.46s-1.76,5.39-5,5.39a4.38,4.38,0,0,1-3.9-1.85m3.55.37c2.46,0,3.64-1.68,3.64-3.91s-1.18-4-3.62-4-3.66,2-3.66,4,1,3.91,3.64,3.91"/><path class="cls-5" d="M640.5,111.08c3.45,0,5.43,2.16,5.43,5.45s-2,5.4-5.43,5.4-5.46-2.1-5.46-5.4,1.93-5.45,5.46-5.45m0,9.43c2.43,0,3.75-1.61,3.75-4s-1.32-4-3.75-4-3.8,1.68-3.8,4,1.34,4,3.8,4"/><path class="cls-4" d="M648.54,121.15V106.44c0-.66.12-.78.76-.78h7.77c.39,0,.51,0,.51.3,0,.59-.46,1.14-1.55,1.14h-5.85v5.57h5.58c.38,0,.49,0,.49.29,0,.6-.45,1.14-1.54,1.14h-4.53v6.23h6.67c.5,0,.59.09.59.55v.34c0,.45-.09.54-.59.54h-7.64c-.55,0-.67-.09-.67-.61"/><path class="cls-4" d="M667.79,121.77h-.35c-.51,0-.63-.09-.63-.64v-5.85c0-1.63-.66-2.79-2.57-2.79a2.82,2.82,0,0,0-3,2.89v5.75c0,.55-.09.64-.64.64h-.31c-.53,0-.64-.09-.64-.64V111.8c0-.42,0-.56.31-.56.91,0,1.28.38,1.28,1.27v.16a3.9,3.9,0,0,1,3.41-1.59c2.66,0,3.75,1.59,3.75,4.09v6c0,.55-.11.64-.63.64"/><path class="cls-4" d="M672.63,117.24c.18,2.46,1.57,3.23,3.75,3.23a9.51,9.51,0,0,0,4-.89c.32-.13.48,0,.48.25a1.41,1.41,0,0,1-.91,1.32,9,9,0,0,1-3.8.78c-3.21,0-5.25-1.44-5.25-5.19s1.82-5.66,5.09-5.66,4.91,2.11,4.91,5.23c0,.5-.14.93-.86.93Zm0-1.29h6.71c-.07-2.14-1.09-3.51-3.34-3.51-2.09,0-3.16,1.34-3.37,3.51"/><path class="cls-4" d="M685.07,116.92v4.21c0,.54-.09.63-.63.63h-.32c-.52,0-.64-.09-.64-.63V111.8c0-.43,0-.56.32-.56.91,0,1.27.38,1.27,1.27v.73A2.9,2.9,0,0,1,688,111c1.29,0,1.66.5,1.66,1.23,0,.37,0,.46-.37.39a4.59,4.59,0,0,0-1.24-.18c-2,0-2.94,1.68-3,4.5"/><path class="cls-4" d="M691.44,126.2a1.27,1.27,0,0,1-.86-1.18c0-.41.18-.48.55-.3a8.79,8.79,0,0,0,4,.89c1.91,0,4.07-.62,4.07-4.51l0-1.06a4.4,4.4,0,0,1-3.93,1.88c-3.19,0-5-2.16-5-5.36s1.85-5.48,5-5.48a4.41,4.41,0,0,1,3.94,2v-.41c0-1,.36-1.38,1.27-1.38.3,0,.32.13.32.63v9.44c0,4.62-2.71,5.66-5.53,5.66a8,8,0,0,1-3.82-.77m4.17-13.67c-2.44,0-3.62,1.75-3.62,4s1.18,3.94,3.64,3.94,3.66-1.94,3.66-3.91-1.09-4-3.68-4"/><path class="cls-4" d="M705.32,106a.78.78,0,0,1,.84-.43H707c.34,0,.43.21.14.5l-2.2,2.32a.75.75,0,0,1-.62.23h-.73c-.18,0-.25-.09-.11-.27Zm.27,6.53v8.62c0,.54-.09.63-.61.63h-.35c-.51,0-.63-.09-.63-.63V111.8c0-.43,0-.56.32-.56.91,0,1.27.38,1.27,1.27"/><path class="cls-4" d="M712,116a27.59,27.59,0,0,1,3.29.2v-1.37c0-2.22-1.75-2.43-3.07-2.43a11.14,11.14,0,0,0-2.86.41c-.57.16-.66.09-.66-.2a1.05,1.05,0,0,1,.79-1.14,10.53,10.53,0,0,1,3-.43c1.55,0,4.42.36,4.42,3.57v6.64c0,.43,0,.57-.32.57-.84,0-1.23-.32-1.3-1a6.11,6.11,0,0,1-3.87,1.09c-2.36,0-3.5-1-3.5-3.05S709.3,116,712,116m3.29,1.45a19.64,19.64,0,0,0-3-.18c-1.73,0-2.8.2-2.8,1.54s.87,1.76,2.3,1.76a5.19,5.19,0,0,0,3.48-1Z"/><path class="cls-4" d="M721.19,121.77c-.52,0-.63-.1-.63-.6V106.42c0-.64.11-.75.73-.75h4.43c3.16,0,4.46,1.79,4.46,4s-.94,3.19-2.37,3.64c2.34.39,3.5,1.66,3.5,4,0,2.64-1.58,4.44-5.13,4.44Zm1-14.72v5.64h3.45a2.57,2.57,0,0,0,2.87-2.84c0-1.57-.78-2.8-3.14-2.8Zm0,7v6.3h3.73c2.68,0,3.73-1.27,3.73-3.16,0-2.12-1.3-3.14-3.73-3.14Z"/><path class="cls-4" d="M738.73,111.08c3.46,0,5.44,2.16,5.44,5.45s-2,5.4-5.44,5.4-5.46-2.1-5.46-5.4,1.93-5.45,5.46-5.45m0,9.43c2.44,0,3.75-1.61,3.75-4s-1.31-4-3.75-4-3.8,1.68-3.8,4,1.35,4,3.8,4"/><path class="cls-4" d="M747.22,126.2c-.6-.3-.87-.64-.87-1.18s.18-.48.55-.3a8.79,8.79,0,0,0,4,.89c1.91,0,4.07-.62,4.07-4.51l0-1.06a4.4,4.4,0,0,1-3.93,1.88c-3.18,0-5-2.16-5-5.36s1.84-5.48,5-5.48a4.39,4.39,0,0,1,3.93,2v-.41c0-1,.36-1.38,1.27-1.38.3,0,.32.13.32.63v9.44c0,4.62-2.7,5.66-5.52,5.66a8,8,0,0,1-3.82-.77m4.15-13.67c-2.43,0-3.61,1.75-3.61,4s1.18,3.94,3.64,3.94c2.61,0,3.66-1.94,3.66-3.91s-1.09-4-3.69-4"/><path class="cls-4" d="M764.61,111.08c3.46,0,5.43,2.16,5.43,5.45s-2,5.4-5.43,5.4-5.45-2.1-5.45-5.4,1.93-5.45,5.45-5.45m0,9.43c2.43,0,3.75-1.61,3.75-4s-1.32-4-3.75-4-3.8,1.68-3.8,4,1.35,4,3.8,4"/><path class="cls-4" d="M774.73,108.73v2.51h2.76c.43,0,.5.06.5.52v.34c0,.48-.07.52-.5.52h-2.76v5.92c0,1.54.82,1.93,1.51,1.93a3.24,3.24,0,0,0,1.57-.41c.25-.09.36,0,.36.36a1.2,1.2,0,0,1-.16.66,2.43,2.43,0,0,1-2.2.82c-1.8,0-2.69-1.09-2.69-3.34v-5.94h-1.28c-.42,0-.49,0-.49-.52v-.34c0-.46.07-.52.49-.52h1.28v-.76c0-1.63.52-2.32,1.27-2.32.32,0,.34.12.34.57"/><path class="cls-4" d="M783.4,116a27.62,27.62,0,0,1,3.3.2v-1.36c0-2.23-1.75-2.44-3.07-2.44a11.22,11.22,0,0,0-2.87.41c-.57.16-.66.09-.66-.2a1.05,1.05,0,0,1,.8-1.14,10.47,10.47,0,0,1,3-.43c1.55,0,4.42.36,4.42,3.57v6.64c0,.43,0,.57-.33.57-.84,0-1.22-.32-1.29-1a6.14,6.14,0,0,1-3.87,1.09c-2.36,0-3.5-1-3.5-3.05S780.7,116,783.4,116m3.3,1.45a19.64,19.64,0,0,0-3-.18c-1.73,0-2.8.2-2.8,1.54s.87,1.76,2.3,1.76a5.23,5.23,0,0,0,3.48-1ZM784.54,106a.78.78,0,0,1,.84-.43h.84c.34,0,.43.21.14.5l-2.21,2.32a.72.72,0,0,1-.61.23h-.73c-.18,0-.25-.09-.11-.27Z"/><path class="cls-6" d="M451.29,115.39a.78.78,0,0,1-.47-.17,44.71,44.71,0,0,1,.42-69.34.76.76,0,0,1,1.06.13.75.75,0,0,1-.13,1.06,43.21,43.21,0,0,0-.41,67,.74.74,0,0,1,.12,1,.75.75,0,0,1-.59.29"/><g class="cls-7"><g class="cls-8"><path class="cls-6" d="M489.21,123.23a44.22,44.22,0,0,1-44.29-42.3.75.75,0,0,1,1.5-.06,42.82,42.82,0,0,0,4.23,16.72,42.75,42.75,0,1,0,40.27-61.33.74.74,0,0,1-.72-.78.75.75,0,0,1,.78-.72,44.25,44.25,0,0,1-1.77,88.47"/></g></g><g class="cls-7"><g class="cls-9"><path class="cls-4" d="M492.26,112.84a44.24,44.24,0,1,1,25.66-80.31,43.65,43.65,0,0,1,6.38,5.53.75.75,0,0,1-1.09,1,41.78,41.78,0,0,0-6.16-5.34A42.75,42.75,0,1,0,519,102a.75.75,0,0,1,.93,1.18,44.22,44.22,0,0,1-27.65,9.71"/></g></g><path class="cls-4" d="M435,63.66A19.92,19.92,0,1,1,455,83.59,19.92,19.92,0,0,1,435,63.66"/><path class="cls-4" d="M480.08,53.32A19.92,19.92,0,1,1,500,73.25a19.92,19.92,0,0,1-19.92-19.93"/><path class="cls-6" d="M496,109.55A15.17,15.17,0,1,1,512.65,123,15.16,15.16,0,0,1,496,109.55"/><path class="cls-6" d="M482.49,25.81A15.17,15.17,0,1,1,497.66,41a15.17,15.17,0,0,1-15.17-15.17"/><path class="cls-6" d="M445.67,126.85A15.17,15.17,0,1,1,460.84,142a15.17,15.17,0,0,1-15.17-15.17"/><path class="cls-10" d="M475.08,94.72a5.18,5.18,0,1,1,5.18,5.18,5.18,5.18,0,0,1-5.18-5.18"/><path class="cls-11" d="M543.18,39.8a.76.76,0,0,1-.75-.66A43.19,43.19,0,0,0,501.76,1.5a.75.75,0,0,1,.06-1.5,44.72,44.72,0,0,1,42.11,39,.76.76,0,0,1-.66.84h-.09"/><path class="cls-11" d="M515.54,94.07a17.31,17.31,0,1,1,17.31,17.31,17.3,17.3,0,0,1-17.31-17.31"/><path class="cls-11" d="M529.26,32.71A11.54,11.54,0,1,1,540.8,44.24a11.54,11.54,0,0,1-11.54-11.53"/><path class="cls-11" d="M453.23,25.81A5.18,5.18,0,1,1,458.4,31a5.17,5.17,0,0,1-5.17-5.18"/><path class="cls-4" d="M503.32,148.27a3.66,3.66,0,1,1,4.78-2,3.66,3.66,0,0,1-4.78,2"/><path class="cls-12" d="M484.58,120.91a11.54,11.54,0,1,1,11.53,11.53,11.54,11.54,0,0,1-11.53-11.53"/><path class="cls-12" d="M425.47,100A11.54,11.54,0,1,1,437,111.53,11.54,11.54,0,0,1,425.47,100"/><path class="cls-4" d="M417.93,41.26a3.71,3.71,0,1,1,4.84-2,3.7,3.7,0,0,1-4.84,2"/><path class="cls-5" d="M177.26,29.83h9.13c1.35,0,1.5.2,1.5,1.64v13c0,1.14-.21,1.44-1.1,1.84a27.24,27.24,0,0,1-11.32,2.23c-12.62,0-18-7.45-18-18,0-11,5.21-18.38,18.18-18.38,5.36,0,8.59,1.29,10.62,2.68a3.39,3.39,0,0,1,1.35,2.58c0,.7-.15,1.05-.75.8a21.08,21.08,0,0,0-11.07-2.88c-10.73,0-14.46,6.06-14.46,15.2,0,8.59,3.48,14.8,14.11,14.8a20.68,20.68,0,0,0,8.84-1.74V33H178.5A2.31,2.31,0,0,1,176,30.58c0-.7.3-.75,1.3-.75"/><path class="cls-5" d="M197.58,37.33v9.19c0,1.19-.2,1.39-1.39,1.39h-.7c-1.14,0-1.39-.2-1.39-1.39V26.16c0-.95,0-1.25.69-1.25,2,0,2.79.85,2.79,2.79v1.58c1.24-3.62,3.52-4.91,6.4-4.91s3.63,1.09,3.63,2.68c0,.79-.1,1-.79.84a10.66,10.66,0,0,0-2.74-.39c-4.32,0-6.41,3.67-6.5,9.83"/><path class="cls-5" d="M227,45.33v-.65c-1.39,2-3.92,3.53-7.65,3.53-5.71,0-8-3.33-8-8.69V26.15c0-.94,0-1.24.69-1.24,2,0,2.79.85,2.79,2.79V39.47c0,3.18,1.49,5.51,5.36,5.51,4.37,0,6.41-2.53,6.8-6V26.15c0-.94,0-1.24.7-1.24,2,0,2.83.85,2.83,2.79V46.87c0,.94,0,1.24-.7,1.24-2,0-2.83-.85-2.83-2.78"/><path class="cls-5" d="M240.79,44.28V57.94c0,1.19-.19,1.39-1.38,1.39h-.7c-1.14,0-1.39-.2-1.39-1.39V26.15c0-.94,0-1.24.69-1.24,2,0,2.78.85,2.78,2.78v1.2c1.64-2.54,4.33-4.28,8.55-4.28,7,0,10.88,4.87,10.88,11.93s-3.83,11.77-10.93,11.77c-4.17,0-6.9-1.64-8.5-4m7.75.8c5.37,0,8-3.68,8-8.54s-2.58-8.75-7.9-8.75c-5.66,0-8,4.32-8,8.75s2.23,8.54,7.94,8.54"/><path class="cls-5" d="M276.26,24.57c7.55,0,11.87,4.71,11.87,11.92s-4.32,11.77-11.87,11.77-11.92-4.57-11.92-11.77,4.23-11.92,11.92-11.92m0,20.61c5.32,0,8.2-3.53,8.2-8.69s-2.88-8.85-8.2-8.85S268,31.32,268,36.49s2.93,8.69,8.29,8.69"/><path class="cls-4" d="M159.57,91.22V59.08c0-1.44.25-1.68,1.64-1.68h17c.84,0,1.09.05,1.09.64,0,1.29-1,2.48-3.38,2.48H163.15V72.69h12.17c.84,0,1.09,0,1.09.65,0,1.29-1,2.48-3.38,2.48h-9.88V89.43H177.7c1.09,0,1.29.2,1.29,1.19v.75c0,1-.2,1.19-1.29,1.19H161c-1.19,0-1.44-.2-1.44-1.34"/><path class="cls-4" d="M201.6,92.56h-.75c-1.14,0-1.39-.2-1.39-1.39V78.41c0-3.58-1.44-6.11-5.61-6.11s-6.16,2.63-6.51,6.3V91.17c0,1.19-.2,1.39-1.39,1.39h-.69c-1.15,0-1.39-.2-1.39-1.39V70.81c0-1,0-1.24.69-1.24,2,0,2.78.84,2.78,2.78v.34c1.34-1.93,3.73-3.47,7.45-3.47,5.81,0,8.2,3.47,8.2,8.94v13c0,1.19-.25,1.39-1.39,1.39"/><path class="cls-4" d="M212.18,82.68c.4,5.36,3.43,7,8.2,7a20.84,20.84,0,0,0,8.79-1.94c.69-.3,1-.1,1,.55a3.08,3.08,0,0,1-2,2.88,19.58,19.58,0,0,1-8.29,1.69c-7,0-11.47-3.13-11.47-11.33,0-8,4-12.36,11.12-12.36,7.35,0,10.73,4.62,10.73,11.42,0,1.09-.3,2-1.89,2Zm0-2.83h14.65c-.15-4.67-2.38-7.65-7.3-7.65-4.57,0-6.9,2.93-7.35,7.65"/><path class="cls-4" d="M239.35,82v9.19c0,1.19-.19,1.39-1.39,1.39h-.69c-1.14,0-1.39-.2-1.39-1.39V70.81c0-1,0-1.24.69-1.24,2,0,2.78.84,2.78,2.78v1.59c1.25-3.63,3.53-4.92,6.41-4.92s3.63,1.09,3.63,2.68c0,.8-.1,1-.8.85a10.55,10.55,0,0,0-2.73-.4c-4.32,0-6.41,3.67-6.51,9.83"/><path class="cls-4" d="M253.26,102.25a2.75,2.75,0,0,1-1.88-2.59c0-.89.39-1,1.19-.64a19.47,19.47,0,0,0,8.74,1.93c4.17,0,8.89-1.34,8.89-9.83l.05-2.33c-1.59,2.43-4.37,4.12-8.59,4.12-7,0-10.93-4.72-10.93-11.72s4-12,10.88-12c4.17,0,6.95,1.74,8.59,4.27v-.9c0-2.08.79-3,2.78-3,.65,0,.7.29.7,1.39V91.57c0,10.08-5.91,12.36-12.07,12.36a17.62,17.62,0,0,1-8.35-1.68m9.09-29.85c-5.31,0-7.9,3.82-7.9,8.74s2.59,8.59,7.95,8.59c5.71,0,8-4.22,8-8.54s-2.39-8.79-8-8.79"/><path class="cls-4" d="M283.57,58.09a1.69,1.69,0,0,1,1.83-.94h1.84c.75,0,.94.45.3,1.09l-4.82,5.07a1.58,1.58,0,0,1-1.34.49h-1.59c-.4,0-.55-.19-.25-.59Zm.59,14.26V91.17c0,1.19-.2,1.39-1.34,1.39h-.74c-1.15,0-1.4-.2-1.4-1.39V70.81c0-1,.06-1.24.7-1.24,2,0,2.78.84,2.78,2.78"/><path class="cls-4" d="M298.17,80.05a61.68,61.68,0,0,1,7.2.44v-3c0-4.87-3.82-5.31-6.7-5.31a23.81,23.81,0,0,0-6.26.89c-1.25.35-1.44.2-1.44-.45a2.3,2.3,0,0,1,1.73-2.48,23.33,23.33,0,0,1,6.56-.94c3.38,0,9.64.79,9.64,7.79V91.52c0,.94,0,1.24-.7,1.24-1.84,0-2.68-.7-2.83-2.28-1.34,1-3.82,2.38-8.44,2.38-5.17,0-7.65-2.24-7.65-6.66s3-6.15,8.89-6.15m7.2,3.17a44.11,44.11,0,0,0-6.51-.39c-3.77,0-6.11.44-6.11,3.37s1.89,3.83,5,3.83c4.12,0,6.16-1.19,7.6-2.29Z"/><path class="cls-4" d="M161,137.21c-1.14,0-1.39-.2-1.39-1.29V103.69c0-1.39.25-1.64,1.59-1.64h9.69c6.9,0,9.73,3.92,9.73,8.69,0,4.52-2,7-5.16,8,5.11.84,7.64,3.62,7.64,8.84,0,5.76-3.47,9.68-11.22,9.68Zm2.09-32.13V117.4h7.55c4.12,0,6.26-2.29,6.26-6.21,0-3.43-1.69-6.11-6.86-6.11Zm0,15.34v13.76h8.15c5.86,0,8.14-2.78,8.14-6.9,0-4.62-2.83-6.86-8.14-6.86Z"/><path class="cls-4" d="M199.26,113.87c7.55,0,11.87,4.72,11.87,11.92s-4.32,11.77-11.87,11.77-11.92-4.57-11.92-11.77,4.23-11.92,11.92-11.92m0,20.61c5.32,0,8.2-3.53,8.2-8.69s-2.88-8.84-8.2-8.84-8.29,3.67-8.29,8.84,2.93,8.69,8.29,8.69"/><path class="cls-4" d="M217.79,146.9a2.74,2.74,0,0,1-1.88-2.59c0-.89.39-1,1.19-.64a19.44,19.44,0,0,0,8.74,1.94c4.17,0,8.89-1.34,8.89-9.84l.05-2.33c-1.59,2.43-4.37,4.12-8.59,4.12-7,0-10.93-4.72-10.93-11.72s4-12,10.88-12c4.17,0,7,1.74,8.59,4.27v-.89c0-2.09.79-3,2.78-3,.65,0,.7.29.7,1.39v20.61c0,10.08-5.91,12.37-12.07,12.37a17.59,17.59,0,0,1-8.35-1.69m9.09-29.85c-5.31,0-7.89,3.82-7.89,8.74s2.58,8.59,7.94,8.59c5.71,0,8-4.22,8-8.54,0-4.47-2.39-8.79-8.05-8.79"/><path class="cls-4" d="M255.8,113.87c7.54,0,11.86,4.72,11.86,11.92s-4.32,11.77-11.86,11.77c-7.7,0-11.93-4.57-11.93-11.77s4.23-11.92,11.93-11.92m0,20.61c5.31,0,8.19-3.53,8.19-8.69S261.11,117,255.8,117s-8.3,3.67-8.3,8.84,2.93,8.69,8.3,8.69"/><path class="cls-4" d="M277.9,108.75v5.47h6c.94,0,1.09.15,1.09,1.14v.74c0,1.05-.15,1.15-1.09,1.15h-6v12.91c0,3.38,1.79,4.22,3.28,4.22a7.13,7.13,0,0,0,3.43-.89c.54-.2.79-.1.79.79a2.54,2.54,0,0,1-.35,1.44c-.74,1.15-2.28,1.79-4.81,1.79-3.93,0-5.86-2.38-5.86-7.3v-13H271.6c-1,0-1.1-.1-1.1-1.15v-.74c0-1,.15-1.14,1.1-1.14h2.78v-1.64c0-3.58,1.14-5.07,2.78-5.07.69,0,.74.25.74,1.24"/><path class="cls-4" d="M296.83,124.7a64,64,0,0,1,7.2.44v-3c0-4.86-3.82-5.31-6.71-5.31a24.21,24.21,0,0,0-6.25.89c-1.25.35-1.44.2-1.44-.44a2.31,2.31,0,0,1,1.73-2.49,23.71,23.71,0,0,1,6.56-.94c3.38,0,9.64.79,9.64,7.8v14.5c0,.94-.05,1.24-.7,1.24-1.84,0-2.68-.69-2.83-2.28-1.34,1-3.82,2.38-8.44,2.38-5.17,0-7.65-2.24-7.65-6.65s3-6.16,8.89-6.16m7.2,3.18a42.85,42.85,0,0,0-6.51-.4c-3.77,0-6.11.44-6.11,3.38s1.89,3.82,5,3.82c4.12,0,6.16-1.19,7.6-2.29Zm-4.72-25.14a1.71,1.71,0,0,1,1.84-.94H303c.74,0,.94.45.29,1.09L298.47,108a1.57,1.57,0,0,1-1.34.5h-1.59c-.4,0-.55-.2-.25-.6Z"/><path class="cls-6" d="M35.46,114.78a.74.74,0,0,1-.47-.16,44.45,44.45,0,0,1,.42-68.95.75.75,0,0,1,.93,1.17,43,43,0,0,0-.41,66.61.75.75,0,0,1,.11,1,.72.72,0,0,1-.58.28"/><g class="cls-7"><g class="cls-13"><path class="cls-6" d="M73.17,122.58A44,44,0,0,1,33.48,97.74a44.69,44.69,0,0,1-3.19-8.91,43.9,43.9,0,0,1-1.17-8.31.75.75,0,1,1,1.5-.06A42.51,42.51,0,1,0,74.87,36.1a.75.75,0,0,1-.72-.78.76.76,0,0,1,.78-.72,44,44,0,0,1-1.76,88"/></g></g><g class="cls-7"><g class="cls-14"><path class="cls-4" d="M76.2,112.26a44,44,0,1,1,31.87-74.38.75.75,0,0,1,0,1.06.75.75,0,0,1-1.06,0,41.35,41.35,0,0,0-6.13-5.31,42.51,42.51,0,1,0,1.92,67.82.75.75,0,1,1,.93,1.17,44,44,0,0,1-27.5,9.66"/></g></g><path class="cls-4" d="M19.29,63.35A19.81,19.81,0,1,1,39.1,83.16,19.81,19.81,0,0,1,19.29,63.35"/><path class="cls-4" d="M64.09,53.07A19.81,19.81,0,1,1,83.9,72.88,19.81,19.81,0,0,1,64.09,53.07"/><path class="cls-6" d="M79.9,109A15.08,15.08,0,1,1,96.48,122.4,15.07,15.07,0,0,1,79.9,109"/><path class="cls-6" d="M66.48,25.71A15.09,15.09,0,1,1,81.57,40.79,15.1,15.1,0,0,1,66.48,25.71"/><path class="cls-6" d="M29.87,126.19A15.09,15.09,0,1,1,45,141.28a15.08,15.08,0,0,1-15.08-15.09"/><path class="cls-10" d="M59.12,94.23a5.15,5.15,0,1,1,5.15,5.15,5.15,5.15,0,0,1-5.15-5.15"/><path class="cls-11" d="M126.84,39.62a.76.76,0,0,1-.75-.66A42.94,42.94,0,0,0,85.65,1.53a.74.74,0,0,1-.72-.78A.75.75,0,0,1,85.71,0a44.45,44.45,0,0,1,41.87,38.74.74.74,0,0,1-.65.83h-.09"/><path class="cls-11" d="M99.36,93.59a17.21,17.21,0,1,1,17.2,17.21,17.2,17.2,0,0,1-17.2-17.21"/><path class="cls-11" d="M113,32.56A11.47,11.47,0,1,1,124.47,44,11.47,11.47,0,0,1,113,32.56"/><path class="cls-11" d="M37.38,25.71a5.15,5.15,0,1,1,5.15,5.15,5.15,5.15,0,0,1-5.15-5.15"/><path class="cls-4" d="M87.2,147.49a3.64,3.64,0,1,1,4.75-2,3.64,3.64,0,0,1-4.75,2"/><path class="cls-12" d="M68.56,120.27A11.47,11.47,0,1,1,80,131.75a11.48,11.48,0,0,1-11.47-11.48"/><path class="cls-12" d="M9.78,99.47a11.48,11.48,0,1,1,11.47,11.47A11.48,11.48,0,0,1,9.78,99.47"/><path class="cls-4" d="M2.29,41.07a3.68,3.68,0,1,1,4.81-2,3.68,3.68,0,0,1-4.81,2"/></g></g></g></svg>