<svg xmlns="http://www.w3.org/2000/svg" xmlns:xlink="http://www.w3.org/1999/xlink" viewBox="0 0 308.9 148.55"><defs><clipPath id="f105f283-eb38-48d6-bba1-9fac97f9afc1"><rect x="29.12" y="34.57" width="88" height="87.98" style="fill:none"/></clipPath><clipPath id="eaeedb6b-d43b-471e-b135-b77b199b1cd3"><rect x="32.16" y="24.17" width="76.11" height="88.04" style="fill:none"/></clipPath></defs><title>Recurso 1m</title><g style="isolation:isolate"><g id="a893fe97-ed0e-4165-a4c5-9628d2be8641" data-name="Capa 2"><g id="fa2a2975-3f73-4941-a14d-f8146b487550" data-name="Capa 1"><path d="M177.26,29.79h9.13c1.35,0,1.5.2,1.5,1.64v13c0,1.14-.21,1.44-1.1,1.83a27.25,27.25,0,0,1-11.32,2.24c-12.62,0-18-7.45-18-18,0-11,5.21-18.38,18.18-18.38,5.36,0,8.59,1.29,10.63,2.68a3.42,3.42,0,0,1,1.34,2.59c0,.69-.15,1-.75.79a21.08,21.08,0,0,0-11.07-2.88c-10.73,0-14.46,6.06-14.46,15.2,0,8.59,3.48,14.8,14.11,14.8a20.68,20.68,0,0,0,8.84-1.74V32.92H178.5A2.3,2.3,0,0,1,176,30.54c0-.7.29-.75,1.29-.75" style="fill:#252223"/><path d="M197.58,37.29v9.19c0,1.19-.2,1.39-1.39,1.39h-.7c-1.14,0-1.39-.2-1.39-1.39V26.12c0-.94,0-1.24.7-1.24,2,0,2.78.84,2.78,2.78v1.59c1.24-3.63,3.52-4.92,6.41-4.92s3.62,1.09,3.62,2.68c0,.8-.1,1-.79.85a10.68,10.68,0,0,0-2.74-.4c-4.32,0-6.41,3.68-6.5,9.83" style="fill:#252223"/><path d="M227,45.29v-.64c-1.4,2-3.93,3.52-7.66,3.52-5.71,0-8-3.33-8-8.69V26.12c0-.94,0-1.24.69-1.24,2,0,2.79.84,2.79,2.78V39.43c0,3.18,1.49,5.51,5.36,5.51,4.37,0,6.41-2.53,6.81-6V26.12c0-.94,0-1.24.69-1.24,2,0,2.83.84,2.83,2.78V46.83c0,.94,0,1.24-.69,1.24-2,0-2.83-.84-2.83-2.78" style="fill:#252223"/><path d="M240.8,44.25V57.91c0,1.19-.2,1.38-1.39,1.38h-.7c-1.14,0-1.39-.19-1.39-1.38V26.12c0-.95,0-1.24.69-1.24,2,0,2.79.84,2.79,2.78v1.19c1.63-2.53,4.32-4.27,8.54-4.27,7,0,10.88,4.87,10.88,11.92s-3.83,11.77-10.93,11.77c-4.17,0-6.9-1.64-8.49-4m7.75.79c5.36,0,7.94-3.67,7.94-8.54s-2.58-8.74-7.9-8.74c-5.66,0-8,4.32-8,8.74s2.23,8.54,8,8.54" style="fill:#252223"/><path d="M276.26,24.53c7.55,0,11.87,4.72,11.87,11.92s-4.32,11.77-11.87,11.77-11.92-4.57-11.92-11.77,4.23-11.92,11.92-11.92m0,20.61c5.32,0,8.2-3.53,8.2-8.69s-2.88-8.84-8.2-8.84S268,31.28,268,36.45s2.93,8.69,8.29,8.69" style="fill:#252223"/><path d="M159.57,91.18V59.05c0-1.44.25-1.69,1.64-1.69h17c.84,0,1.09,0,1.09.64,0,1.3-1,2.49-3.38,2.49H163.15V72.66h12.17c.84,0,1.09,0,1.09.64,0,1.29-1,2.49-3.38,2.49h-9.88v13.6H177.7c1.1,0,1.29.2,1.29,1.2v.74c0,1-.19,1.19-1.29,1.19H161c-1.19,0-1.44-.19-1.44-1.34" style="fill:#54924f"/><path d="M201.6,92.52h-.75c-1.14,0-1.39-.19-1.39-1.39V78.37c0-3.58-1.44-6.11-5.61-6.11s-6.16,2.63-6.51,6.31V91.13c0,1.2-.19,1.39-1.39,1.39h-.69c-1.14,0-1.39-.19-1.39-1.39V70.77c0-.94,0-1.24.69-1.24,2,0,2.78.84,2.78,2.78v.35c1.34-1.94,3.73-3.48,7.45-3.48,5.81,0,8.2,3.48,8.2,8.94v13c0,1.2-.25,1.39-1.39,1.39" style="fill:#54924f"/><path d="M212.18,82.64c.4,5.36,3.43,7,8.2,7a21,21,0,0,0,8.79-1.93c.69-.3,1-.1,1,.54a3,3,0,0,1-2,2.88,19.43,19.43,0,0,1-8.29,1.69c-7,0-11.47-3.13-11.47-11.32,0-8,4-12.37,11.12-12.37,7.35,0,10.73,4.62,10.73,11.42,0,1.1-.3,2-1.89,2Zm0-2.83h14.65c-.15-4.67-2.38-7.65-7.3-7.65-4.57,0-6.9,2.93-7.35,7.65" style="fill:#54924f"/><path d="M239.35,82v9.18c0,1.2-.19,1.4-1.38,1.4h-.7c-1.14,0-1.39-.2-1.39-1.4V70.77c0-.94,0-1.24.69-1.24,2,0,2.78.84,2.78,2.78V73.9c1.25-3.63,3.53-4.92,6.41-4.92s3.63,1.1,3.63,2.69c0,.79-.1,1-.8.84a10.55,10.55,0,0,0-2.73-.4c-4.32,0-6.41,3.68-6.51,9.84" style="fill:#54924f"/><path d="M253.26,102.21c-1.29-.65-1.88-1.39-1.88-2.58,0-.9.39-1,1.19-.65a19.31,19.31,0,0,0,8.74,1.94c4.17,0,8.89-1.34,8.89-9.84l.05-2.33c-1.59,2.43-4.37,4.12-8.59,4.12-7,0-10.93-4.72-10.93-11.72s4-12,10.88-12c4.17,0,6.95,1.74,8.59,4.27v-.89c0-2.09.79-3,2.78-3,.65,0,.7.3.7,1.39V91.53c0,10.08-5.91,12.37-12.07,12.37a17.47,17.47,0,0,1-8.35-1.69m9.09-29.85c-5.31,0-7.9,3.82-7.9,8.74s2.59,8.59,7.95,8.59c5.71,0,8-4.22,8-8.54,0-4.47-2.39-8.79-8-8.79" style="fill:#54924f"/><path d="M283.57,58.06a1.69,1.69,0,0,1,1.83-1h1.84c.75,0,.94.45.3,1.09l-4.82,5.07a1.56,1.56,0,0,1-1.34.5h-1.59c-.4,0-.55-.2-.25-.6Zm.59,14.25V91.13c0,1.2-.2,1.4-1.34,1.4h-.74c-1.15,0-1.4-.2-1.4-1.4V70.77c0-.94.06-1.24.7-1.24,2,0,2.78.84,2.78,2.78" style="fill:#54924f"/><path d="M298.17,80a61.79,61.79,0,0,1,7.2.45v-3c0-4.86-3.82-5.31-6.7-5.31a23.77,23.77,0,0,0-6.26.9c-1.25.34-1.44.19-1.44-.45a2.29,2.29,0,0,1,1.73-2.48,23.28,23.28,0,0,1,6.56-.95c3.38,0,9.64.8,9.64,7.8v14.5c0,.94,0,1.24-.7,1.24-1.84,0-2.68-.69-2.83-2.28-1.34,1-3.82,2.38-8.44,2.38-5.17,0-7.65-2.23-7.65-6.65s3-6.16,8.89-6.16m7.2,3.18a42.85,42.85,0,0,0-6.51-.4c-3.77,0-6.11.45-6.11,3.38s1.89,3.82,5,3.82c4.13,0,6.16-1.19,7.6-2.28Z" style="fill:#54924f"/><path d="M161,137.18c-1.14,0-1.39-.2-1.39-1.3V103.65c0-1.39.25-1.64,1.59-1.64h9.69c6.9,0,9.73,3.93,9.73,8.69,0,4.52-2,7-5.16,8,5.11.84,7.65,3.63,7.65,8.84,0,5.76-3.48,9.69-11.23,9.69ZM163.05,105v12.32h7.55c4.12,0,6.26-2.28,6.26-6.21,0-3.43-1.69-6.11-6.86-6.11Zm0,15.35v13.76h8.15c5.86,0,8.14-2.78,8.14-6.91,0-4.62-2.83-6.85-8.14-6.85Z" style="fill:#54924f"/><path d="M199.26,113.83c7.55,0,11.87,4.72,11.87,11.92s-4.32,11.77-11.87,11.77-11.92-4.57-11.92-11.77,4.23-11.92,11.92-11.92m0,20.61c5.32,0,8.2-3.52,8.2-8.69s-2.88-8.84-8.2-8.84-8.29,3.68-8.29,8.84,2.93,8.69,8.29,8.69" style="fill:#54924f"/><path d="M217.79,146.86c-1.29-.65-1.88-1.39-1.88-2.58,0-.9.39-1,1.19-.65a19.31,19.31,0,0,0,8.74,1.94c4.17,0,8.89-1.34,8.89-9.83l.05-2.34c-1.59,2.43-4.37,4.12-8.59,4.12-6.95,0-10.93-4.71-10.93-11.72s4-12,10.88-12c4.17,0,7,1.74,8.59,4.27v-.89c0-2.09.79-3,2.78-3,.65,0,.7.3.7,1.39v20.61c0,10.09-5.91,12.37-12.07,12.37a17.47,17.47,0,0,1-8.35-1.69M226.88,117c-5.31,0-7.89,3.83-7.89,8.74s2.58,8.59,7.94,8.59c5.72,0,8-4.22,8-8.54s-2.39-8.79-8.05-8.79" style="fill:#54924f"/><path d="M255.8,113.83c7.54,0,11.86,4.72,11.86,11.92s-4.32,11.77-11.86,11.77c-7.7,0-11.93-4.57-11.93-11.77s4.23-11.92,11.93-11.92m0,20.61c5.31,0,8.19-3.52,8.19-8.69s-2.88-8.84-8.19-8.84-8.3,3.68-8.3,8.84,2.93,8.69,8.3,8.69" style="fill:#54924f"/><path d="M277.9,108.72v5.46h6c.94,0,1.09.15,1.09,1.14v.75c0,1-.15,1.14-1.09,1.14h-6v12.91c0,3.38,1.79,4.22,3.28,4.22a7,7,0,0,0,3.43-.89c.55-.2.79-.1.79.8a2.59,2.59,0,0,1-.35,1.44c-.74,1.14-2.28,1.78-4.81,1.78-3.93,0-5.86-2.38-5.86-7.3v-13H271.6c-1,0-1.1-.1-1.1-1.14v-.75c0-1,.15-1.14,1.1-1.14h2.78v-1.64c0-3.58,1.14-5.07,2.78-5.07.69,0,.74.25.74,1.25" style="fill:#54924f"/><path d="M296.83,124.66a61.79,61.79,0,0,1,7.2.45v-3c0-4.87-3.82-5.32-6.71-5.32a23.75,23.75,0,0,0-6.25.9c-1.25.34-1.44.2-1.44-.45a2.29,2.29,0,0,1,1.73-2.48,23.28,23.28,0,0,1,6.56-1c3.38,0,9.64.8,9.64,7.8v14.5c0,1-.05,1.25-.7,1.25-1.84,0-2.68-.7-2.83-2.29-1.34,1-3.82,2.38-8.44,2.38-5.17,0-7.65-2.23-7.65-6.65s3-6.16,8.89-6.16m7.2,3.18a42.85,42.85,0,0,0-6.51-.4c-3.77,0-6.11.45-6.11,3.38s1.89,3.82,5,3.82c4.13,0,6.16-1.19,7.6-2.28Zm-4.72-25.13a1.7,1.7,0,0,1,1.84-.95H303c.74,0,.94.45.29,1.1l-4.81,5.06a1.57,1.57,0,0,1-1.34.5h-1.59c-.4,0-.55-.2-.25-.6Z" style="fill:#54924f"/><path d="M35.46,114.75a.75.75,0,0,1-.47-.17,44.45,44.45,0,0,1,.42-68.95.75.75,0,0,1,.93,1.18,43,43,0,0,0-.41,66.61.75.75,0,0,1-.47,1.33" style="fill:#a0ba4c"/><g style="mix-blend-mode:multiply"><g style="clip-path:url(#f105f283-eb38-48d6-bba1-9fac97f9afc1)"><path d="M73.17,122.55A44.07,44.07,0,0,1,33.48,97.7a44.6,44.6,0,0,1-3.19-8.9,44,44,0,0,1-1.17-8.32.75.75,0,1,1,1.5-.06,42.53,42.53,0,0,0,61,36.39A42.51,42.51,0,0,0,74.87,36.06a.74.74,0,0,1-.72-.78.75.75,0,0,1,.78-.71,44,44,0,0,1-1.76,88" style="fill:#a0ba4c"/></g></g><g style="mix-blend-mode:multiply"><g style="clip-path:url(#eaeedb6b-d43b-471e-b135-b77b199b1cd3)"><path d="M76.2,112.22A44,44,0,0,1,35.35,84.6,44,44,0,0,1,93.47,27.73a44.72,44.72,0,0,1,8.25,4.62,43.74,43.74,0,0,1,6.35,5.5.75.75,0,1,1-1.09,1A42.52,42.52,0,1,0,59.5,107.3a42.5,42.5,0,0,0,43.27-5.91.75.75,0,1,1,.93,1.17,44,44,0,0,1-27.5,9.66" style="fill:#54924f"/></g></g><path d="M19.29,63.31A19.81,19.81,0,1,1,39.1,83.12,19.81,19.81,0,0,1,19.29,63.31" style="fill:#54924f"/><path d="M64.09,53A19.81,19.81,0,1,1,83.9,72.84,19.81,19.81,0,0,1,64.09,53" style="fill:#54924f"/><path d="M79.9,109a15.08,15.08,0,1,1,16.58,13.41A15.08,15.08,0,0,1,79.9,109" style="fill:#a0ba4c"/><path d="M66.48,25.67A15.09,15.09,0,1,1,81.57,40.75,15.09,15.09,0,0,1,66.48,25.67" style="fill:#a0ba4c"/><path d="M29.87,126.15A15.09,15.09,0,1,1,45,141.24a15.08,15.08,0,0,1-15.08-15.09" style="fill:#a0ba4c"/><path d="M59.12,94.2a5.15,5.15,0,1,1,5.15,5.14,5.14,5.14,0,0,1-5.15-5.14" style="fill:#466fa4"/><path d="M126.84,39.58a.76.76,0,0,1-.75-.66A42.93,42.93,0,0,0,85.65,1.5.75.75,0,0,1,85.71,0a44.45,44.45,0,0,1,41.87,38.74.75.75,0,0,1-.65.84h-.09" style="fill:#5f97c7"/><path d="M99.36,93.55a17.21,17.21,0,1,1,17.21,17.21A17.21,17.21,0,0,1,99.36,93.55" style="fill:#5f97c7"/><path d="M113,32.53A11.47,11.47,0,1,1,124.47,44,11.47,11.47,0,0,1,113,32.53" style="fill:#5f97c7"/><path d="M37.38,25.67a5.15,5.15,0,1,1,5.15,5.15,5.16,5.16,0,0,1-5.15-5.15" style="fill:#5f97c7"/><path d="M87.2,147.45a3.64,3.64,0,1,1,4.75-2,3.64,3.64,0,0,1-4.75,2" style="fill:#54924f"/><path d="M68.56,120.24A11.47,11.47,0,1,1,80,131.71a11.47,11.47,0,0,1-11.47-11.47" style="fill:#456ea4"/><path d="M9.78,99.44a11.48,11.48,0,1,1,11.47,11.47A11.48,11.48,0,0,1,9.78,99.44" style="fill:#456ea4"/><path d="M2.29,41A3.68,3.68,0,1,1,7.1,39a3.67,3.67,0,0,1-4.81,2" style="fill:#54924f"/></g></g></g></svg>